P3
3 3
255
172 205 255 179 209 255 170 204 255 195 219 255 0 0 0 193 218 255 207 226 255 214 230 255 210 228 255 
